# xmcd
#
# Track frame offsets: 
#        150
#        16535
#        28978
#        43699
#        53252
#        65147
#        76509
#        90239
#        103687
#        115598
#        126023
#        140622
#        151482
#        165404
#        181489
#        193419
#        207760
#        216970
#        228653
#        240139
#        253502
#        266946
#        278230
#        288361
#        302737
#        313426
#
# Disc length: 4354 seconds
#
# Revision: 0
# Processed by: cddbd v1.5.2PL0 Copyright (c) Steve Scherf et al.
# Submitted via: ExactAudioCopy v0.95b3
#
DISCID=6b11001a
DTITLE=Bee Gees  - Ideal - Disc 1 (Stereo-Mono)
DYEAR=1900
DGENRE=
TTITLE0=Let There Be Love - (Idea - CD 1 - 1968)
TTITLE1=Kitty Can - (Idea - CD 1 - 1968)
TTITLE2=In the Summer Of His Years - (Idea - CD 1 - 1968)
TTITLE3=Indian Gin and Whisky Dry - (Idea - CD 1 - 1968)
TTITLE4=Down To Earth - (Idea - CD 1 - 1968)
TTITLE5=Such a Shame - (Idea - CD 1 - 1968)
TTITLE6=I've Gotta Get A Message To You (Idea - CD 1 - 1968)
TTITLE7=Idea - (Idea - CD 1 - 1968)
TTITLE8=When the Swallows Fly - (Idea - CD 1 - 1968)
TTITLE9=I Have Decided To Join the Air Force - (Idea - CD 1 - 1968)
TTITLE10=I Started A Joke [Stereo]
TTITLE11=Kilburn Towers - (Idea - CD 1 - 1968)
TTITLE12=Swan Song - (Idea - CD 1 - 1968)
TTITLE13=Let There Be Love (mono) - (Idea - CD 1 - 1968)
TTITLE14=Kitty Can (mono) - (Idea - CD 1 - 1968)
TTITLE15=In the Summer Of His Years (mono) - (Idea - CD 1 - 1968)
TTITLE16=Indian Gin and Whisky Dry (mono) - (Idea - CD 1 - 1968)
TTITLE17=Down To Earth (mono) - (Idea - CD 1 - 1968)
TTITLE18=Such a Shame (mono) - (Idea - CD 1 - 1968)
TTITLE19=I've Gotta Get a Message To You (mono) - (Idea - CD 1 - 1968)
TTITLE20=Idea (mono) - (Idea - CD 1 - 1968)
TTITLE21=When the Swallows Fly (mono) - (Idea - CD 1 - 1968)
TTITLE22=I Have Decided To Join the Air Force (mono) - (Idea - CD 1 - 
TTITLE22=1968)
TTITLE23=I Started a Joke (mono) - (Idea - CD 1 - 1968)
TTITLE24=Kilburn Towers (mono) - (Idea - CD 1 - 1968)
TTITLE25=Swan Song (mono) - (Idea - CD 1 - 1968)
EXTD=
EXTT0=
EXTT1=
EXTT2=
EXTT3=
EXTT4=
EXTT5=
EXTT6=
EXTT7=
EXTT8=
EXTT9=
EXTT10=
EXTT11=
EXTT12=
EXTT13=
EXTT14=
EXTT15=
EXTT16=
EXTT17=
EXTT18=
EXTT19=
EXTT20=
EXTT21=
EXTT22=
EXTT23=
EXTT24=
EXTT25=
PLAYORDER=
